<svg xmlns="http://www.w3.org/2000/svg" viewBox="0 0 442 200.59"><defs><style>.cls-1{fill:#18786f;}.cls-2{fill:#063b44;}.cls-3{font-size:14.24px;fill:#231f20;font-family:TFArrow-Light, TFArrow;font-weight:300;letter-spacing:0.05em;}.cls-4{letter-spacing:0.06em;}</style></defs><g id="Content"><path class="cls-1" d="M122.24,28.61a35.35,35.35,0,0,0-4-5.81,8.78,8.78,0,0,0-6.48-3.13q-6-.21-12.3-.67-5.35-.43-11.84-.67t-12.51-.22V148.84A10.37,10.37,0,0,0,76.76,155a14.73,14.73,0,0,0,4.14,3.92H41A12.85,12.85,0,0,0,45.33,155a10.74,10.74,0,0,0,1.6-6.14V18.11q-6.26,0-12.63.22T22.79,19q-6,.45-11.62.67A9.92,9.92,0,0,0,4.36,22.8,27.12,27.12,0,0,0,0,28.61V6.93H122.24Z"/><path class="cls-1" d="M270.85,92.3a14.28,14.28,0,0,0-4.14,4,11,11,0,0,0-1.67,6.26v33.07a13.37,13.37,0,0,0,1.34,6c.89,1.79,1.64,2.83,2.23,3.13a92.74,92.74,0,0,1-16.15,7,172,172,0,0,1-18.42,5q-9.39,2-18.21,3.13a124.75,124.75,0,0,1-15.54,1.12,92.85,92.85,0,0,1-31.84-5.47,84.17,84.17,0,0,1-26.7-15.54,73.33,73.33,0,0,1-18.44-24.47,74.51,74.51,0,0,1-6.82-32.29A79,79,0,0,1,122,54.53a75,75,0,0,1,16.31-25.25,80.8,80.8,0,0,1,27-18Q181.52,4.48,203,4.48a118.21,118.21,0,0,1,26.48,2.9,150.49,150.49,0,0,1,26,8.72l1.57,35.53Q252.85,40.23,246,33.3a55,55,0,0,0-14.24-10.61,52.93,52.93,0,0,0-14.07-4.92,63.64,63.64,0,0,0-10.72-1.23,62,62,0,0,0-25.37,4.92A54.8,54.8,0,0,0,162.8,35a58.54,58.54,0,0,0-11.73,20.34,77,77,0,0,0-4,25.14A94.82,94.82,0,0,0,150.17,104a65.38,65.38,0,0,0,10.28,22.13,55.4,55.4,0,0,0,18.89,16.31q11.73,6.38,29.16,6.37c1.19,0,2.83-.07,4.92-.22s4.43-.45,7-.9a52,52,0,0,0,8.15-2.12,35.76,35.76,0,0,0,8.27-4.14V102.58a11.51,11.51,0,0,0-1.56-6.26,12.35,12.35,0,0,0-4.25-4Z"/><path class="cls-1" d="M285.37,158.9a12.66,12.66,0,0,0,4.25-3.92,10.9,10.9,0,0,0,1.56-6.14V17q0-7.15-5.81-10.06h40.45Q320,9.62,320,17V148.84q0,6.93,5.81,10.06Z"/><path class="cls-1" d="M440.46,28.61a17.31,17.31,0,0,0-6-6.7q-4-2.68-11.85-2.91c-1.78,0-5,0-9.72-.11s-9.5-.18-14.41-.33q-8.71-.22-19-.45V69.28h34.86a7.53,7.53,0,0,0,5-2,12.41,12.41,0,0,0,3.24-4V86.94a10.64,10.64,0,0,0-3.24-4.47,7.59,7.59,0,0,0-5-2H379.45v68.38a9.7,9.7,0,0,0,1.68,6.14,16.52,16.52,0,0,0,4.8,3.92H344.59a18.21,18.21,0,0,0,4.92-3.92,9.29,9.29,0,0,0,1.79-6.14V17a10.42,10.42,0,0,0-1.79-6.26,11.68,11.68,0,0,0-4.92-3.8h94.75Z"/><path class="cls-2" d="M17,174.34a6,6,0,0,0-.58-.73,1.34,1.34,0,0,0-.93-.41l-1.58-.09L12.32,173l-1.63,0v17.3a1.48,1.48,0,0,0,.2.8,1.73,1.73,0,0,0,.56.51H7.15a1.38,1.38,0,0,0,.77-1.31V173c-.56,0-1.12,0-1.67,0l-1.53.08-1.57.09a1.42,1.42,0,0,0-.92.41,3.45,3.45,0,0,0-.6.73V171.8H16.92Z"/><path class="cls-2" d="M30.84,184.88a7.42,7.42,0,0,1-.45,2.53,7,7,0,0,1-1.3,2.25,6.6,6.6,0,0,1-2,1.6,5.61,5.61,0,0,1-2.64.61,6,6,0,0,1-2.94-.67,6.18,6.18,0,0,1-2-1.69,7,7,0,0,1-1.1-2.24,8.43,8.43,0,0,1-.35-2.39,7.73,7.73,0,0,1,.43-2.56,7.29,7.29,0,0,1,1.27-2.26,6.4,6.4,0,0,1,2-1.62,6,6,0,0,1,2.71-.61,6.07,6.07,0,0,1,2.86.63,6.4,6.4,0,0,1,2,1.61,6.76,6.76,0,0,1,1.15,2.25A9.2,9.2,0,0,1,30.84,184.88Zm-2.65-.2a13,13,0,0,0-.3-2.17,6.48,6.48,0,0,0-.75-1.88,4,4,0,0,0-1.22-1.3,2.84,2.84,0,0,0-1.69-.45,2.69,2.69,0,0,0-1.64.57,4,4,0,0,0-1.11,1.38,6.9,6.9,0,0,0-.61,1.94,11.2,11.2,0,0,0-.16,2.26,9,9,0,0,0,.32,2.24,6.64,6.64,0,0,0,.78,1.83A3.75,3.75,0,0,0,23,190.33a2.88,2.88,0,0,0,1.62.4,2.79,2.79,0,0,0,1.64-.53,4.11,4.11,0,0,0,1.14-1.33,6.1,6.1,0,0,0,.64-1.89A10.15,10.15,0,0,0,28.19,184.68Z"/><path class="cls-2" d="M47.18,191.87a4.25,4.25,0,0,1-.47-.31,1.46,1.46,0,0,1-.33-.37,1.64,1.64,0,0,1-.19-.54,4.67,4.67,0,0,1-.06-.82,8.28,8.28,0,0,1-1.69,1.38,4.62,4.62,0,0,1-2.56.66,4.47,4.47,0,0,1-1.41-.25,3.71,3.71,0,0,1-1.44-.86,4.59,4.59,0,0,1-1.13-1.67,7,7,0,0,1-.45-2.7V179.7a1.66,1.66,0,0,0-.08-.56.87.87,0,0,0-.24-.32,1,1,0,0,0-.32-.17l-.35-.12,3.53-.7v8.56a4,4,0,0,0,.87,2.81,2.76,2.76,0,0,0,2.13,1,3.17,3.17,0,0,0,1.76-.44,9,9,0,0,0,1.32-1v-9c0-.45-.11-.74-.33-.86a3.85,3.85,0,0,0-.69-.31l3.5-.7v11.45a2.16,2.16,0,0,0,.25,1.1,1.19,1.19,0,0,0,.91.56Z"/><path class="cls-2" d="M63.46,180.8a2.63,2.63,0,0,0-.73-.65,1.82,1.82,0,0,0-1-.25,2.25,2.25,0,0,0-1.48.52,6.5,6.5,0,0,0-1,1.05v9a.92.92,0,0,0,.22.7,3.49,3.49,0,0,0,.53.41h-4a2.91,2.91,0,0,0,.55-.41,1,1,0,0,0,.2-.7V179.7c0-.45-.11-.74-.33-.86a3.47,3.47,0,0,0-.71-.31l3.58-.7v2.57a6.2,6.2,0,0,1,.61-.83,7.25,7.25,0,0,1,.81-.85,5.49,5.49,0,0,1,.89-.64,1.82,1.82,0,0,1,.83-.25,2.48,2.48,0,0,1,.69.06l.42.18Z"/><path class="cls-2" d="M69.14,191.61a4.22,4.22,0,0,0,.54-.41,1,1,0,0,0,.22-.7V179.7c0-.45-.12-.74-.34-.86a3.76,3.76,0,0,0-.68-.31l3.55-.7V190.5a1,1,0,0,0,.2.7,2.71,2.71,0,0,0,.56.41Zm3.43-18.2a1.45,1.45,0,0,1-.42,1,1.34,1.34,0,0,1-1,.44,1.4,1.4,0,0,1-1-.44,1.43,1.43,0,0,1-.44-1,1.31,1.31,0,0,1,.44-1,1.41,1.41,0,0,1,1-.41,1.35,1.35,0,0,1,1,.41A1.32,1.32,0,0,1,72.57,173.41Z"/><path class="cls-2" d="M87.92,187.82a3.35,3.35,0,0,1-.46,1.78,4.27,4.27,0,0,1-1.18,1.25,5.83,5.83,0,0,1-1.59.76,6,6,0,0,1-1.66.26,5.06,5.06,0,0,1-2.18-.45,13.68,13.68,0,0,1-1.69-.92v-3.76a6.65,6.65,0,0,0,.51,1.48,5.75,5.75,0,0,0,.8,1.26,3.73,3.73,0,0,0,1.06.89,2.7,2.7,0,0,0,1.33.33,2.75,2.75,0,0,0,1.29-.26,2.54,2.54,0,0,0,.82-.64,2.35,2.35,0,0,0,.42-.77,2.32,2.32,0,0,0,.12-.65,2.11,2.11,0,0,0-.19-.91,2.26,2.26,0,0,0-.59-.71,6.26,6.26,0,0,0-1-.67l-1.34-.77a13.11,13.11,0,0,1-1.43-.95,5,5,0,0,1-.93-.9,2.94,2.94,0,0,1-.5-1,4.4,4.4,0,0,1-.14-1.12,3.47,3.47,0,0,1,.22-1.16,3.23,3.23,0,0,1,.73-1.16,3.79,3.79,0,0,1,1.32-.89,5.22,5.22,0,0,1,2-.35,7.7,7.7,0,0,1,1.38.16,7.21,7.21,0,0,1,1.82.69v3.49a8,8,0,0,0-.45-1.15,4.91,4.91,0,0,0-.67-1.08,3.33,3.33,0,0,0-.9-.78,2.19,2.19,0,0,0-1.18-.31,2.75,2.75,0,0,0-1,.16,2.36,2.36,0,0,0-.69.42,1.75,1.75,0,0,0-.4.57,1.5,1.5,0,0,0-.14.6,1.77,1.77,0,0,0,.66,1.46A16.55,16.55,0,0,0,84,183.25l1.4.83a7,7,0,0,1,1.25,1,4.6,4.6,0,0,1,.9,1.21A3.28,3.28,0,0,1,87.92,187.82Z"/><path class="cls-2" d="M101.52,189.89a1.11,1.11,0,0,1-.23.63,3.15,3.15,0,0,1-.63.64,3.78,3.78,0,0,1-.91.51,3.34,3.34,0,0,1-1.17.2,3.82,3.82,0,0,1-4-4.22v-8.24H93.28l3.79-3.91v2.68h4v1.23H97v8.21a3.9,3.9,0,0,0,.29,1.63,2.43,2.43,0,0,0,.7.92,2.15,2.15,0,0,0,.86.39,4.16,4.16,0,0,0,.8.09,3,3,0,0,0,.73-.08,1.87,1.87,0,0,0,.49-.17,1.93,1.93,0,0,0,.35-.23A3.83,3.83,0,0,0,101.52,189.89Z"/><path class="cls-2" d="M136.62,183.19a1.77,1.77,0,0,0-.57.51,1.31,1.31,0,0,0-.22.8v3.88a1.68,1.68,0,0,0,.19.82l.22.43a11,11,0,0,1-2.07,1,20.77,20.77,0,0,1-2.34.7,20.15,20.15,0,0,1-2.31.42,14.76,14.76,0,0,1-1.93.15,11.65,11.65,0,0,1-4.12-.73,10.88,10.88,0,0,1-3.47-2,10,10,0,0,1-2.39-3.19,9.52,9.52,0,0,1-.89-4.14,10.31,10.31,0,0,1,.7-3.68,9.63,9.63,0,0,1,2.12-3.28,10.89,10.89,0,0,1,3.5-2.36,12.35,12.35,0,0,1,4.9-.9,13.39,13.39,0,0,1,3.48.45,26,26,0,0,1,3.42,1.21q0,1.2.09,2.16c0,.54.06,1,.08,1.5s0,.69,0,.71a6.77,6.77,0,0,0-1.53-2.52,7.76,7.76,0,0,0-1.95-1.46,7.35,7.35,0,0,0-1.92-.67,9.72,9.72,0,0,0-1.44-.16,9.07,9.07,0,0,0-3.67.69,7.68,7.68,0,0,0-2.64,1.86,7.87,7.87,0,0,0-1.58,2.74,10.39,10.39,0,0,0-.53,3.34,12.45,12.45,0,0,0,.44,3.2,8.7,8.7,0,0,0,1.43,3,7.6,7.6,0,0,0,2.57,2.18,8.06,8.06,0,0,0,3.86.85l.88,0a7.61,7.61,0,0,0,1.23-.18,10.66,10.66,0,0,0,1.43-.4,5.87,5.87,0,0,0,1.44-.76V184.5a1.31,1.31,0,0,0-.22-.8,2,2,0,0,0-.53-.51Z"/><path class="cls-2" d="M152.93,191.87a3.48,3.48,0,0,1-.47-.31,1.33,1.33,0,0,1-.34-.37,1.63,1.63,0,0,1-.18-.54,4.67,4.67,0,0,1-.06-.82,8.28,8.28,0,0,1-1.69,1.38,4.65,4.65,0,0,1-2.57.66,4.57,4.57,0,0,1-1.41-.25,3.86,3.86,0,0,1-1.44-.86,4.57,4.57,0,0,1-1.12-1.67,7,7,0,0,1-.45-2.7V179.7a1.42,1.42,0,0,0-.09-.56,1,1,0,0,0-.23-.32,1.1,1.1,0,0,0-.32-.17l-.35-.12,3.52-.7v8.56a4,4,0,0,0,.88,2.81,2.75,2.75,0,0,0,2.12,1,3.13,3.13,0,0,0,1.76-.44,9.05,9.05,0,0,0,1.33-1v-9c0-.45-.11-.74-.34-.86a3.76,3.76,0,0,0-.68-.31l3.49-.7v11.45a2.26,2.26,0,0,0,.25,1.1,1.21,1.21,0,0,0,.92.56Z"/><path class="cls-2" d="M161.66,191.61a3.61,3.61,0,0,0,.54-.41.92.92,0,0,0,.22-.7V179.7c0-.45-.11-.74-.34-.86a3.76,3.76,0,0,0-.68-.31l3.55-.7V190.5a1,1,0,0,0,.21.7,2.62,2.62,0,0,0,.55.41Zm3.44-18.2a1.45,1.45,0,0,1-.42,1,1.38,1.38,0,0,1-1,.44,1.4,1.4,0,0,1-1-.44,1.42,1.42,0,0,1-.43-1,1.3,1.3,0,0,1,.43-1,1.41,1.41,0,0,1,1-.41,1.39,1.39,0,0,1,1,.41A1.32,1.32,0,0,1,165.1,173.41Z"/><path class="cls-2" d="M181.35,191.87l-.06-1.57a8.16,8.16,0,0,1-.67.51,7.59,7.59,0,0,1-.9.51,8.29,8.29,0,0,1-1.06.39,4.16,4.16,0,0,1-1.16.16,5.07,5.07,0,0,1-2.59-.63,5.32,5.32,0,0,1-1.77-1.63,7.11,7.11,0,0,1-1-2.3,10.59,10.59,0,0,1-.33-2.63,6.92,6.92,0,0,1,3.87-6.22,6.23,6.23,0,0,1,2.83-.63,3.92,3.92,0,0,1,1.58.28,4.48,4.48,0,0,1,1.15.68v-5.38a1.46,1.46,0,0,0-.08-.54.76.76,0,0,0-.25-.31,1.63,1.63,0,0,0-.34-.19l-.35-.13,3.56-.7v18.2c0,.45.11.74.35.86a4.42,4.42,0,0,0,.67.31Zm-.15-11.5a4,4,0,0,0-.87-.94,2.29,2.29,0,0,0-1.46-.43,3.91,3.91,0,0,0-1.83.41,4.06,4.06,0,0,0-1.4,1.15,5.3,5.3,0,0,0-.89,1.76,7.88,7.88,0,0,0-.3,2.24,7.6,7.6,0,0,0,.46,2.87,5.11,5.11,0,0,0,1.14,1.77,3.88,3.88,0,0,0,1.38.91,4.06,4.06,0,0,0,1.24.25,3.14,3.14,0,0,0,1.49-.38,5.94,5.94,0,0,0,1-.7Z"/><path class="cls-2" d="M193.35,183.86v.82a7.18,7.18,0,0,0,.29,2.09,5.13,5.13,0,0,0,.87,1.75,4.29,4.29,0,0,0,1.46,1.21,4.38,4.38,0,0,0,2,.45,4.19,4.19,0,0,0,1.5-.28,6.43,6.43,0,0,0,1.38-.71,5.85,5.85,0,0,0,1.11-1,3.84,3.84,0,0,0,.67-1.07,4.21,4.21,0,0,1-.45,1.75,5.33,5.33,0,0,1-1.14,1.5,5.71,5.71,0,0,1-3.86,1.47,6.23,6.23,0,0,1-2.77-.6,6.68,6.68,0,0,1-2.09-1.58,7,7,0,0,1-1.32-2.23,7.23,7.23,0,0,1-.46-2.55,7.45,7.45,0,0,1,.43-2.45,7.29,7.29,0,0,1,1.26-2.28,6.41,6.41,0,0,1,2.11-1.69,6.26,6.26,0,0,1,2.93-.66,5.71,5.71,0,0,1,1.91.34,4.85,4.85,0,0,1,1.76,1.06,5.69,5.69,0,0,1,1.29,1.88,6.75,6.75,0,0,1,.51,2.75Zm6.75-1.08a5.28,5.28,0,0,0-.26-1.79,3.39,3.39,0,0,0-.7-1.21,2.7,2.7,0,0,0-1-.68,3.17,3.17,0,0,0-1.18-.22,3,3,0,0,0-1.4.32,3.4,3.4,0,0,0-1.05.87,4.81,4.81,0,0,0-.7,1.26,6.4,6.4,0,0,0-.35,1.45Z"/><path class="cls-2" d="M219.62,191.61a1.84,1.84,0,0,0,.56-.51,1.33,1.33,0,0,0,.22-.8V173.11a1.36,1.36,0,0,0-.22-.81,1.5,1.5,0,0,0-.56-.5h4.31a1.52,1.52,0,0,0-.54.5,1.36,1.36,0,0,0-.22.81V190.3a1.33,1.33,0,0,0,.22.8,1.88,1.88,0,0,0,.54.51Z"/><path class="cls-2" d="M239,191.61a2,2,0,0,0,.57-.41,1,1,0,0,0,.19-.7v-7.57a6.13,6.13,0,0,0-.12-1.21,2.61,2.61,0,0,0-.46-1.08,2.55,2.55,0,0,0-.95-.78,3.36,3.36,0,0,0-1.56-.31,3.22,3.22,0,0,0-1.73.5,4.56,4.56,0,0,0-1.21,1v9.43a1,1,0,0,0,.21.7,2.62,2.62,0,0,0,.55.41h-4a2.53,2.53,0,0,0,.54-.41,1,1,0,0,0,.19-.7V179.7a1,1,0,0,0-.29-.88,3.83,3.83,0,0,0-.67-.35l3.49-.64v2.07a7.13,7.13,0,0,1,.66-.61,9,9,0,0,1,1-.69,6.37,6.37,0,0,1,1.21-.55,4.45,4.45,0,0,1,1.36-.22,5,5,0,0,1,1.58.26,4.25,4.25,0,0,1,1.39.79,3.89,3.89,0,0,1,1.34,3v8.62a1,1,0,0,0,.21.7,4.22,4.22,0,0,0,.54.41Z"/><path class="cls-2" d="M258.44,191.87l-.06-1.57c-.18.15-.4.32-.67.51a7.59,7.59,0,0,1-.9.51,7.91,7.91,0,0,1-1.07.39,4,4,0,0,1-1.15.16,5,5,0,0,1-2.59-.63,5.32,5.32,0,0,1-1.77-1.63,6.9,6.9,0,0,1-1-2.3,10.59,10.59,0,0,1-.33-2.63,7.15,7.15,0,0,1,1.76-4.62,6.81,6.81,0,0,1,2.11-1.6,6.19,6.19,0,0,1,2.82-.63,4,4,0,0,1,1.59.28,4.48,4.48,0,0,1,1.15.68v-5.38a1.46,1.46,0,0,0-.08-.54.86.86,0,0,0-.25-.31,1.63,1.63,0,0,0-.34-.19l-.35-.13,3.56-.7v18.2c0,.45.11.74.35.86a4.42,4.42,0,0,0,.67.31Zm-.15-11.5a4,4,0,0,0-.87-.94A2.3,2.3,0,0,0,256,179a3.91,3.91,0,0,0-1.83.41,4,4,0,0,0-1.4,1.15,5.3,5.3,0,0,0-.89,1.76,7.88,7.88,0,0,0-.3,2.24,7.6,7.6,0,0,0,.46,2.87,5.11,5.11,0,0,0,1.14,1.77,3.72,3.72,0,0,0,1.38.91,4.06,4.06,0,0,0,1.24.25,3.08,3.08,0,0,0,1.48-.38,5.71,5.71,0,0,0,1.05-.7Z"/><path class="cls-2" d="M278.27,191.87a4.25,4.25,0,0,1-.47-.31,1.46,1.46,0,0,1-.33-.37,1.64,1.64,0,0,1-.19-.54,4.67,4.67,0,0,1-.06-.82,8,8,0,0,1-1.69,1.38,4.62,4.62,0,0,1-2.56.66,4.47,4.47,0,0,1-1.41-.25,3.71,3.71,0,0,1-1.44-.86,4.71,4.71,0,0,1-1.13-1.67,7,7,0,0,1-.45-2.7V179.7a1.66,1.66,0,0,0-.08-.56.87.87,0,0,0-.24-.32.9.9,0,0,0-.32-.17l-.35-.12,3.53-.7v8.56a4,4,0,0,0,.87,2.81,2.76,2.76,0,0,0,2.13,1,3.17,3.17,0,0,0,1.76-.44,9,9,0,0,0,1.32-1v-9c0-.45-.11-.74-.33-.86a3.55,3.55,0,0,0-.69-.31l3.5-.7v11.45a2.16,2.16,0,0,0,.25,1.1,1.19,1.19,0,0,0,.91.56Z"/><path class="cls-2" d="M295.22,187.82a3.35,3.35,0,0,1-.47,1.78,4.14,4.14,0,0,1-1.18,1.25,5.64,5.64,0,0,1-1.58.76,6,6,0,0,1-1.66.26,5.1,5.1,0,0,1-2.19-.45,15.31,15.31,0,0,1-1.69-.92v-3.76a7.85,7.85,0,0,0,.51,1.48,6.15,6.15,0,0,0,.8,1.26,3.77,3.77,0,0,0,1.07.89,2.69,2.69,0,0,0,1.32.33,2.76,2.76,0,0,0,1.3-.26,2.4,2.4,0,0,0,.81-.64,2.21,2.21,0,0,0,.43-.77,2.66,2.66,0,0,0,.11-.65,2,2,0,0,0-.19-.91,2.22,2.22,0,0,0-.58-.71,6.78,6.78,0,0,0-1-.67l-1.34-.77a13.11,13.11,0,0,1-1.43-.95,5,5,0,0,1-.93-.9,2.76,2.76,0,0,1-.5-1,4,4,0,0,1-.14-1.12,3.71,3.71,0,0,1,.21-1.16,3.37,3.37,0,0,1,.73-1.16,3.83,3.83,0,0,1,1.33-.89,5.22,5.22,0,0,1,2-.35,7.8,7.8,0,0,1,1.38.16,7.35,7.35,0,0,1,1.82.69v3.49a11.31,11.31,0,0,0-.45-1.15,5.31,5.31,0,0,0-.67-1.08,3.33,3.33,0,0,0-.9-.78,2.21,2.21,0,0,0-1.18-.31,2.75,2.75,0,0,0-1,.16,2.23,2.23,0,0,0-.69.42,2,2,0,0,0-.41.57,1.66,1.66,0,0,0-.13.6,1.77,1.77,0,0,0,.66,1.46,15.63,15.63,0,0,0,1.82,1.19l1.4.83a7,7,0,0,1,1.25,1,4.6,4.6,0,0,1,.9,1.21A3.4,3.4,0,0,1,295.22,187.82Z"/><path class="cls-2" d="M308.82,189.89a1.19,1.19,0,0,1-.23.63,3.44,3.44,0,0,1-.63.64,3.85,3.85,0,0,1-.92.51,3.28,3.28,0,0,1-1.16.2,3.82,3.82,0,0,1-4.05-4.22v-8.24h-1.25l3.78-3.91v2.68h4v1.23h-4.07v8.21a3.75,3.75,0,0,0,.29,1.63,2.34,2.34,0,0,0,.7.92,2.09,2.09,0,0,0,.86.39,4.08,4.08,0,0,0,.8.09,2.86,2.86,0,0,0,.72-.08,2,2,0,0,0,.5-.17,1.93,1.93,0,0,0,.35-.23Z"/><path class="cls-2" d="M321.49,180.8a2.63,2.63,0,0,0-.73-.65,1.82,1.82,0,0,0-1-.25,2.25,2.25,0,0,0-1.48.52,6.5,6.5,0,0,0-1.05,1.05v9a.92.92,0,0,0,.22.7,3.49,3.49,0,0,0,.53.41h-4a2.91,2.91,0,0,0,.55-.41,1,1,0,0,0,.2-.7V179.7c0-.45-.11-.74-.33-.86a3.56,3.56,0,0,0-.72-.31l3.59-.7v2.57a6.2,6.2,0,0,1,.61-.83,7.25,7.25,0,0,1,.81-.85,5.49,5.49,0,0,1,.89-.64,1.82,1.82,0,0,1,.83-.25,2.48,2.48,0,0,1,.69.06l.42.18Z"/><path class="cls-2" d="M339.63,178.24a4.74,4.74,0,0,0-.9.52,2,2,0,0,0-.61.88c-.51,1.22-1.1,2.6-1.78,4.13s-1.39,3.13-2.14,4.79-1.49,3.35-2.23,5.06-1.42,3.34-2.07,4.89h-2.62a5.32,5.32,0,0,0,.78-.48,5.05,5.05,0,0,0,.52-.51A3.37,3.37,0,0,0,329,197c.11-.2.22-.41.33-.64.39-.74.81-1.56,1.26-2.47s.89-1.83,1.34-2.81l-4.61-11.44A3.62,3.62,0,0,0,327,179a1.77,1.77,0,0,0-.3-.35,1.46,1.46,0,0,0-.37-.2l-.49-.19h5a3.49,3.49,0,0,0-.47.2,1.06,1.06,0,0,0-.33.3.74.74,0,0,0-.15.43,1.7,1.7,0,0,0,.13.67l3.15,8.27c.73-1.63,1.41-3.18,2-4.64s1.1-2.69,1.47-3.66c.2-.5.17-.87-.07-1.1a1.79,1.79,0,0,0-.89-.47Z"/><path class="cls-2" d="M366.19,174.22a2.07,2.07,0,0,0-.86-.8,4,4,0,0,0-1.61-.31h-1.17l-1.89,0-2.51-.06v7H363a.89.89,0,0,0,.61-.27,1.66,1.66,0,0,0,.41-.52V182a1.61,1.61,0,0,0-.41-.54.86.86,0,0,0-.61-.28h-4.81l0,9.09a1.22,1.22,0,0,0,.23.81,1.83,1.83,0,0,0,.64.5h-4.46a1.59,1.59,0,0,0,.62-.5,1.42,1.42,0,0,0,.2-.81V173.11a1.36,1.36,0,0,0-.23-.81,1.68,1.68,0,0,0-.59-.5h11.65Z"/><path class="cls-2" d="M382.3,184.88a7.47,7.47,0,0,1-1.75,4.78,6.72,6.72,0,0,1-2,1.6,5.64,5.64,0,0,1-2.64.61,5.88,5.88,0,0,1-4.92-2.36,6.81,6.81,0,0,1-1.11-2.24,8.81,8.81,0,0,1-.35-2.39,7.74,7.74,0,0,1,.44-2.56,7.09,7.09,0,0,1,1.27-2.26,6.29,6.29,0,0,1,2-1.62,6.54,6.54,0,0,1,5.56,0,6.18,6.18,0,0,1,2,1.61,6.4,6.4,0,0,1,1.15,2.25A8.86,8.86,0,0,1,382.3,184.88Zm-2.65-.2a12.07,12.07,0,0,0-.31-2.17,6.21,6.21,0,0,0-.74-1.88,4,4,0,0,0-1.22-1.3,2.84,2.84,0,0,0-1.69-.45,2.74,2.74,0,0,0-1.65.57,4.1,4.1,0,0,0-1.11,1.38,7.24,7.24,0,0,0-.61,1.94,12,12,0,0,0-.16,2.26,9.46,9.46,0,0,0,.32,2.24,7,7,0,0,0,.79,1.83,3.65,3.65,0,0,0,1.21,1.23,3.1,3.1,0,0,0,3.26-.13,4.23,4.23,0,0,0,1.14-1.33,6.1,6.1,0,0,0,.64-1.89A10.76,10.76,0,0,0,379.65,184.68Z"/><path class="cls-2" d="M396,180.8a2.6,2.6,0,0,0-.72-.65,1.87,1.87,0,0,0-1-.25,2.27,2.27,0,0,0-1.49.52,6.5,6.5,0,0,0-1.05,1.05v9a1,1,0,0,0,.22.7,4.22,4.22,0,0,0,.54.41h-4a3,3,0,0,0,.56-.41,1,1,0,0,0,.2-.7V179.7c0-.45-.11-.74-.34-.86a3.47,3.47,0,0,0-.71-.31l3.58-.7v2.57a7.22,7.22,0,0,1,.61-.83,8.27,8.27,0,0,1,.82-.85,5.09,5.09,0,0,1,.89-.64,1.82,1.82,0,0,1,.83-.25,2.34,2.34,0,0,1,.68.06l.42.18Z"/><path class="cls-2" d="M411.86,191.87a3.48,3.48,0,0,1-.47-.31,1.29,1.29,0,0,1-.33-.37,1.64,1.64,0,0,1-.19-.54,4.67,4.67,0,0,1-.06-.82,8.28,8.28,0,0,1-1.69,1.38,4.83,4.83,0,0,1-4,.41,3.86,3.86,0,0,1-1.44-.86,4.7,4.7,0,0,1-1.12-1.67,7,7,0,0,1-.45-2.7V179.7a1.42,1.42,0,0,0-.09-.56.85.85,0,0,0-.23-.32,1,1,0,0,0-.32-.17l-.35-.12,3.52-.7v8.56a4,4,0,0,0,.88,2.81,2.75,2.75,0,0,0,2.12,1,3.18,3.18,0,0,0,1.77-.44,9.54,9.54,0,0,0,1.32-1v-9c0-.45-.11-.74-.33-.86a4.19,4.19,0,0,0-.69-.31l3.5-.7v11.45a2.27,2.27,0,0,0,.24,1.1,1.21,1.21,0,0,0,.92.56Z"/><path class="cls-2" d="M438,191.61a5.62,5.62,0,0,0,.57-.41.89.89,0,0,0,.25-.7v-7.83a4.92,4.92,0,0,0-.16-1.22,2.62,2.62,0,0,0-.53-1,2.47,2.47,0,0,0-.94-.7,3.41,3.41,0,0,0-1.43-.27A3.22,3.22,0,0,0,434,180a5.08,5.08,0,0,0-1.42,1.3,1.25,1.25,0,0,1,.06.44v8.76a1,1,0,0,0,.21.7,2.62,2.62,0,0,0,.55.41h-4.05a2.62,2.62,0,0,0,.55-.41,1,1,0,0,0,.21-.7v-7.94a4.6,4.6,0,0,0-.15-1.18,2.47,2.47,0,0,0-.49-1,2.43,2.43,0,0,0-.93-.67,3.77,3.77,0,0,0-1.45-.25,3.13,3.13,0,0,0-1.76.5,5,5,0,0,0-1.16,1v9.55a.92.92,0,0,0,.22.7,3.88,3.88,0,0,0,.56.41h-4.07a2.91,2.91,0,0,0,.55-.41,1,1,0,0,0,.2-.7V179.68c0-.44-.11-.73-.33-.85a3.47,3.47,0,0,0-.71-.31l3.58-.69,0,2,.68-.54c.28-.22.6-.44,1-.67a6,6,0,0,1,1.2-.56,4.05,4.05,0,0,1,1.41-.24,4.67,4.67,0,0,1,2.37.66,3.38,3.38,0,0,1,1.59,1.91,7.8,7.8,0,0,1,.85-.91,7,7,0,0,1,1.09-.83,6.22,6.22,0,0,1,1.28-.59,4.18,4.18,0,0,1,1.38-.24,5,5,0,0,1,1.5.24,4.05,4.05,0,0,1,1.4.72,3.73,3.73,0,0,1,1,1.26,3.79,3.79,0,0,1,.39,1.77v8.68a1,1,0,0,0,.21.7,2.62,2.62,0,0,0,.55.41Z"/><text class="cls-3"><tspan x="-30.11" y="-710.02">9.45am</tspan><tspan x="-30.11" y="-679.61">10.</tspan><tspan class="cls-4" x="-15.03" y="-679.61">0</tspan><tspan x="-6.11" y="-679.61">0am</tspan><tspan x="-30.11" y="-649.2">10.15am</tspan><tspan x="-30.11" y="-542.75">10.45am</tspan><tspan x="-30.11" y="-177.8">11.15am</tspan><tspan x="-30.11" y="-132.18">12.</tspan><tspan class="cls-4" x="-17.11" y="-132.18">0</tspan><tspan x="-8.18" y="-132.18">0pm</tspan></text></g></svg>